<mxfile host="app.diagrams.net" agent="Mozilla/5.0 (Windows NT 10.0; Win64; x64) AppleWebKit/537.36 (KHTML, like Gecko) Chrome/135.0.0.0 Safari/537.36" version="26.2.14">
  <diagram id="2BDL8EQ5O7BQtiHxKh81" name="Page-1">
    <mxGraphModel dx="969" dy="526" grid="1" gridSize="10" guides="1" tooltips="1" connect="1" arrows="1" fold="1" page="1" pageScale="1" pageWidth="850" pageHeight="1100" math="0" shadow="0">
      <root>
        <mxCell id="0" />
        <mxCell id="1" parent="0" />
        <mxCell id="nQFnv8SFr1N0iWkzfD2N-1" value="Person" style="whiteSpace=wrap;html=1;align=center;" parent="1" vertex="1">
          <mxGeometry x="170" y="130" width="100" height="40" as="geometry" />
        </mxCell>
        <mxCell id="nQFnv8SFr1N0iWkzfD2N-2" value="Email" style="ellipse;whiteSpace=wrap;html=1;align=center;" parent="1" vertex="1">
          <mxGeometry x="160" y="20" width="100" height="40" as="geometry" />
        </mxCell>
        <mxCell id="nQFnv8SFr1N0iWkzfD2N-7" style="edgeStyle=orthogonalEdgeStyle;rounded=0;orthogonalLoop=1;jettySize=auto;html=1;entryX=0.75;entryY=0;entryDx=0;entryDy=0;endArrow=none;startFill=0;" parent="1" source="nQFnv8SFr1N0iWkzfD2N-3" target="nQFnv8SFr1N0iWkzfD2N-1" edge="1">
          <mxGeometry relative="1" as="geometry" />
        </mxCell>
        <mxCell id="nQFnv8SFr1N0iWkzfD2N-3" value="ContactNumber" style="ellipse;whiteSpace=wrap;html=1;align=center;" parent="1" vertex="1">
          <mxGeometry x="238.52" y="60" width="100" height="40" as="geometry" />
        </mxCell>
        <mxCell id="nQFnv8SFr1N0iWkzfD2N-4" value="&lt;u&gt;PersonID&lt;/u&gt;" style="ellipse;whiteSpace=wrap;html=1;align=center;" parent="1" vertex="1">
          <mxGeometry x="40" y="70" width="100" height="40" as="geometry" />
        </mxCell>
        <mxCell id="nQFnv8SFr1N0iWkzfD2N-9" style="edgeStyle=orthogonalEdgeStyle;rounded=0;orthogonalLoop=1;jettySize=auto;html=1;entryX=0;entryY=0.5;entryDx=0;entryDy=0;endArrow=none;startFill=0;" parent="1" source="nQFnv8SFr1N0iWkzfD2N-5" target="nQFnv8SFr1N0iWkzfD2N-1" edge="1">
          <mxGeometry relative="1" as="geometry" />
        </mxCell>
        <mxCell id="nQFnv8SFr1N0iWkzfD2N-5" value="Name" style="ellipse;whiteSpace=wrap;html=1;align=center;" parent="1" vertex="1">
          <mxGeometry x="10" y="130" width="100" height="40" as="geometry" />
        </mxCell>
        <mxCell id="nQFnv8SFr1N0iWkzfD2N-6" style="edgeStyle=orthogonalEdgeStyle;rounded=0;orthogonalLoop=1;jettySize=auto;html=1;entryX=0.19;entryY=-0.05;entryDx=0;entryDy=0;entryPerimeter=0;endArrow=none;startFill=0;" parent="1" source="nQFnv8SFr1N0iWkzfD2N-4" target="nQFnv8SFr1N0iWkzfD2N-1" edge="1">
          <mxGeometry relative="1" as="geometry" />
        </mxCell>
        <mxCell id="nQFnv8SFr1N0iWkzfD2N-10" value="o" style="ellipse;whiteSpace=wrap;html=1;aspect=fixed;" parent="1" vertex="1">
          <mxGeometry x="200" y="190" width="30" height="30" as="geometry" />
        </mxCell>
        <mxCell id="nQFnv8SFr1N0iWkzfD2N-13" style="edgeStyle=orthogonalEdgeStyle;rounded=0;orthogonalLoop=1;jettySize=auto;html=1;entryX=0.44;entryY=0.925;entryDx=0;entryDy=0;entryPerimeter=0;endArrow=none;startFill=0;" parent="1" source="nQFnv8SFr1N0iWkzfD2N-10" target="nQFnv8SFr1N0iWkzfD2N-1" edge="1">
          <mxGeometry relative="1" as="geometry" />
        </mxCell>
        <mxCell id="nQFnv8SFr1N0iWkzfD2N-14" value="Doctor" style="whiteSpace=wrap;html=1;align=center;" parent="1" vertex="1">
          <mxGeometry x="40" y="280" width="100" height="40" as="geometry" />
        </mxCell>
        <mxCell id="nQFnv8SFr1N0iWkzfD2N-164" style="edgeStyle=orthogonalEdgeStyle;rounded=0;orthogonalLoop=1;jettySize=auto;html=1;entryX=0.5;entryY=1;entryDx=0;entryDy=0;endArrow=none;startFill=0;" parent="1" source="nQFnv8SFr1N0iWkzfD2N-15" target="nQFnv8SFr1N0iWkzfD2N-10" edge="1">
          <mxGeometry relative="1" as="geometry">
            <Array as="points">
              <mxPoint x="215" y="260" />
              <mxPoint x="215" y="260" />
            </Array>
          </mxGeometry>
        </mxCell>
        <mxCell id="nQFnv8SFr1N0iWkzfD2N-15" value="Staff" style="whiteSpace=wrap;html=1;align=center;" parent="1" vertex="1">
          <mxGeometry x="170" y="280" width="100" height="40" as="geometry" />
        </mxCell>
        <mxCell id="nQFnv8SFr1N0iWkzfD2N-16" value="Patient" style="whiteSpace=wrap;html=1;align=center;" parent="1" vertex="1">
          <mxGeometry x="290" y="280" width="100" height="40" as="geometry" />
        </mxCell>
        <mxCell id="nQFnv8SFr1N0iWkzfD2N-24" value="" style="shape=requiredInterface;html=1;verticalLabelPosition=bottom;sketch=0;" parent="1" vertex="1">
          <mxGeometry x="420" y="240" height="20" as="geometry" />
        </mxCell>
        <mxCell id="nQFnv8SFr1N0iWkzfD2N-25" style="edgeStyle=orthogonalEdgeStyle;rounded=0;orthogonalLoop=1;jettySize=auto;html=1;exitX=0;exitY=0.5;exitDx=0;exitDy=0;exitPerimeter=0;entryX=0;entryY=0.5;entryDx=0;entryDy=0;entryPerimeter=0;" parent="1" target="nQFnv8SFr1N0iWkzfD2N-24" edge="1">
          <mxGeometry relative="1" as="geometry">
            <mxPoint x="420" y="250" as="sourcePoint" />
          </mxGeometry>
        </mxCell>
        <mxCell id="nQFnv8SFr1N0iWkzfD2N-35" value="MedicalTransactions" style="whiteSpace=wrap;html=1;align=center;" parent="1" vertex="1">
          <mxGeometry x="700" y="120" width="130" height="40" as="geometry" />
        </mxCell>
        <mxCell id="nQFnv8SFr1N0iWkzfD2N-48" style="edgeStyle=orthogonalEdgeStyle;rounded=0;orthogonalLoop=1;jettySize=auto;html=1;entryX=1;entryY=0.5;entryDx=0;entryDy=0;endArrow=none;startFill=0;" parent="1" source="nQFnv8SFr1N0iWkzfD2N-37" target="nQFnv8SFr1N0iWkzfD2N-35" edge="1">
          <mxGeometry relative="1" as="geometry" />
        </mxCell>
        <mxCell id="nQFnv8SFr1N0iWkzfD2N-37" value="Email" style="ellipse;whiteSpace=wrap;html=1;align=center;" parent="1" vertex="1">
          <mxGeometry x="870" y="120" width="100" height="40" as="geometry" />
        </mxCell>
        <mxCell id="nQFnv8SFr1N0iWkzfD2N-38" style="edgeStyle=orthogonalEdgeStyle;rounded=0;orthogonalLoop=1;jettySize=auto;html=1;entryX=0.75;entryY=0;entryDx=0;entryDy=0;endArrow=none;startFill=0;" parent="1" source="nQFnv8SFr1N0iWkzfD2N-39" target="nQFnv8SFr1N0iWkzfD2N-35" edge="1">
          <mxGeometry relative="1" as="geometry" />
        </mxCell>
        <mxCell id="nQFnv8SFr1N0iWkzfD2N-39" value="ContactNumber" style="ellipse;whiteSpace=wrap;html=1;align=center;" parent="1" vertex="1">
          <mxGeometry x="790" y="50" width="100" height="40" as="geometry" />
        </mxCell>
        <mxCell id="nQFnv8SFr1N0iWkzfD2N-40" value="&lt;u&gt;PersonID&lt;/u&gt;" style="ellipse;whiteSpace=wrap;html=1;align=center;" parent="1" vertex="1">
          <mxGeometry x="570" y="60" width="100" height="40" as="geometry" />
        </mxCell>
        <mxCell id="nQFnv8SFr1N0iWkzfD2N-42" style="edgeStyle=orthogonalEdgeStyle;rounded=0;orthogonalLoop=1;jettySize=auto;html=1;entryX=0.19;entryY=-0.05;entryDx=0;entryDy=0;entryPerimeter=0;endArrow=none;startFill=0;" parent="1" source="nQFnv8SFr1N0iWkzfD2N-40" target="nQFnv8SFr1N0iWkzfD2N-35" edge="1">
          <mxGeometry relative="1" as="geometry" />
        </mxCell>
        <mxCell id="nQFnv8SFr1N0iWkzfD2N-43" value="d" style="ellipse;whiteSpace=wrap;html=1;aspect=fixed;" parent="1" vertex="1">
          <mxGeometry x="730" y="180" width="30" height="30" as="geometry" />
        </mxCell>
        <mxCell id="nQFnv8SFr1N0iWkzfD2N-44" style="edgeStyle=orthogonalEdgeStyle;rounded=0;orthogonalLoop=1;jettySize=auto;html=1;entryX=0.44;entryY=0.925;entryDx=0;entryDy=0;entryPerimeter=0;endArrow=none;startFill=0;" parent="1" source="nQFnv8SFr1N0iWkzfD2N-43" target="nQFnv8SFr1N0iWkzfD2N-35" edge="1">
          <mxGeometry relative="1" as="geometry" />
        </mxCell>
        <mxCell id="nQFnv8SFr1N0iWkzfD2N-47" style="edgeStyle=orthogonalEdgeStyle;rounded=0;orthogonalLoop=1;jettySize=auto;html=1;entryX=0;entryY=0.5;entryDx=0;entryDy=0;endArrow=none;startFill=0;" parent="1" source="nQFnv8SFr1N0iWkzfD2N-45" target="nQFnv8SFr1N0iWkzfD2N-35" edge="1">
          <mxGeometry relative="1" as="geometry" />
        </mxCell>
        <mxCell id="nQFnv8SFr1N0iWkzfD2N-45" value="Name" style="ellipse;whiteSpace=wrap;html=1;align=center;" parent="1" vertex="1">
          <mxGeometry x="540" y="120" width="100" height="40" as="geometry" />
        </mxCell>
        <mxCell id="nQFnv8SFr1N0iWkzfD2N-49" value="Appointment" style="whiteSpace=wrap;html=1;align=center;" parent="1" vertex="1">
          <mxGeometry x="554.5" y="290" width="100" height="40" as="geometry" />
        </mxCell>
        <mxCell id="nQFnv8SFr1N0iWkzfD2N-50" value="MedicalRecord" style="whiteSpace=wrap;html=1;align=center;" parent="1" vertex="1">
          <mxGeometry x="684.5" y="290" width="100" height="40" as="geometry" />
        </mxCell>
        <mxCell id="nQFnv8SFr1N0iWkzfD2N-51" value="TestExamination" style="whiteSpace=wrap;html=1;align=center;" parent="1" vertex="1">
          <mxGeometry x="804.5" y="290" width="100" height="40" as="geometry" />
        </mxCell>
        <mxCell id="nQFnv8SFr1N0iWkzfD2N-52" style="edgeStyle=orthogonalEdgeStyle;rounded=0;orthogonalLoop=1;jettySize=auto;html=1;exitX=0;exitY=0.5;exitDx=0;exitDy=0;exitPerimeter=0;entryX=0;entryY=0.5;entryDx=0;entryDy=0;entryPerimeter=0;" parent="1" edge="1">
          <mxGeometry relative="1" as="geometry">
            <mxPoint x="934.5" y="260" as="sourcePoint" />
            <mxPoint x="934.5" y="260" as="targetPoint" />
          </mxGeometry>
        </mxCell>
        <mxCell id="nQFnv8SFr1N0iWkzfD2N-53" value="Prescription" style="whiteSpace=wrap;html=1;align=center;" parent="1" vertex="1">
          <mxGeometry x="890" y="220" width="100" height="40" as="geometry" />
        </mxCell>
        <mxCell id="nQFnv8SFr1N0iWkzfD2N-54" value="PharmacyInventary" style="whiteSpace=wrap;html=1;align=center;" parent="1" vertex="1">
          <mxGeometry x="180" y="480" width="130" height="40" as="geometry" />
        </mxCell>
        <mxCell id="nQFnv8SFr1N0iWkzfD2N-55" style="edgeStyle=orthogonalEdgeStyle;rounded=0;orthogonalLoop=1;jettySize=auto;html=1;entryX=1;entryY=0.5;entryDx=0;entryDy=0;endArrow=none;startFill=0;" parent="1" source="nQFnv8SFr1N0iWkzfD2N-56" target="nQFnv8SFr1N0iWkzfD2N-54" edge="1">
          <mxGeometry relative="1" as="geometry" />
        </mxCell>
        <mxCell id="nQFnv8SFr1N0iWkzfD2N-56" value="ExpiryDate" style="ellipse;whiteSpace=wrap;html=1;align=center;" parent="1" vertex="1">
          <mxGeometry x="350" y="480" width="100" height="40" as="geometry" />
        </mxCell>
        <mxCell id="nQFnv8SFr1N0iWkzfD2N-57" style="edgeStyle=orthogonalEdgeStyle;rounded=0;orthogonalLoop=1;jettySize=auto;html=1;entryX=0.75;entryY=0;entryDx=0;entryDy=0;endArrow=none;startFill=0;" parent="1" source="nQFnv8SFr1N0iWkzfD2N-58" target="nQFnv8SFr1N0iWkzfD2N-54" edge="1">
          <mxGeometry relative="1" as="geometry" />
        </mxCell>
        <mxCell id="nQFnv8SFr1N0iWkzfD2N-58" value="Category" style="ellipse;whiteSpace=wrap;html=1;align=center;" parent="1" vertex="1">
          <mxGeometry x="270" y="410" width="100" height="40" as="geometry" />
        </mxCell>
        <mxCell id="nQFnv8SFr1N0iWkzfD2N-59" value="&lt;u&gt;DrugID&lt;/u&gt;" style="ellipse;whiteSpace=wrap;html=1;align=center;" parent="1" vertex="1">
          <mxGeometry x="50" y="420" width="100" height="40" as="geometry" />
        </mxCell>
        <mxCell id="nQFnv8SFr1N0iWkzfD2N-60" style="edgeStyle=orthogonalEdgeStyle;rounded=0;orthogonalLoop=1;jettySize=auto;html=1;entryX=0.19;entryY=-0.05;entryDx=0;entryDy=0;entryPerimeter=0;endArrow=none;startFill=0;" parent="1" source="nQFnv8SFr1N0iWkzfD2N-59" target="nQFnv8SFr1N0iWkzfD2N-54" edge="1">
          <mxGeometry relative="1" as="geometry" />
        </mxCell>
        <mxCell id="nQFnv8SFr1N0iWkzfD2N-61" value="d" style="ellipse;whiteSpace=wrap;html=1;aspect=fixed;" parent="1" vertex="1">
          <mxGeometry x="210" y="540" width="30" height="30" as="geometry" />
        </mxCell>
        <mxCell id="nQFnv8SFr1N0iWkzfD2N-63" style="edgeStyle=orthogonalEdgeStyle;rounded=0;orthogonalLoop=1;jettySize=auto;html=1;entryX=0;entryY=0.5;entryDx=0;entryDy=0;endArrow=none;startFill=0;" parent="1" source="nQFnv8SFr1N0iWkzfD2N-64" target="nQFnv8SFr1N0iWkzfD2N-54" edge="1">
          <mxGeometry relative="1" as="geometry" />
        </mxCell>
        <mxCell id="nQFnv8SFr1N0iWkzfD2N-64" value="Name" style="ellipse;whiteSpace=wrap;html=1;align=center;" parent="1" vertex="1">
          <mxGeometry x="20" y="480" width="100" height="40" as="geometry" />
        </mxCell>
        <mxCell id="nQFnv8SFr1N0iWkzfD2N-67" style="edgeStyle=orthogonalEdgeStyle;rounded=0;orthogonalLoop=1;jettySize=auto;html=1;entryX=0.75;entryY=1;entryDx=0;entryDy=0;endArrow=none;startFill=0;" parent="1" source="nQFnv8SFr1N0iWkzfD2N-65" target="nQFnv8SFr1N0iWkzfD2N-54" edge="1">
          <mxGeometry relative="1" as="geometry">
            <Array as="points">
              <mxPoint x="290" y="530" />
              <mxPoint x="290" y="540" />
              <mxPoint x="278" y="540" />
            </Array>
          </mxGeometry>
        </mxCell>
        <mxCell id="nQFnv8SFr1N0iWkzfD2N-65" value="PricePerUnit" style="ellipse;whiteSpace=wrap;html=1;align=center;" parent="1" vertex="1">
          <mxGeometry x="310" y="530" width="100" height="40" as="geometry" />
        </mxCell>
        <mxCell id="nQFnv8SFr1N0iWkzfD2N-68" style="edgeStyle=orthogonalEdgeStyle;rounded=0;orthogonalLoop=1;jettySize=auto;html=1;entryX=1;entryY=0.25;entryDx=0;entryDy=0;endArrow=none;startFill=0;" parent="1" source="nQFnv8SFr1N0iWkzfD2N-66" target="nQFnv8SFr1N0iWkzfD2N-54" edge="1">
          <mxGeometry relative="1" as="geometry">
            <Array as="points">
              <mxPoint x="370" y="440" />
              <mxPoint x="370" y="480" />
              <mxPoint x="310" y="480" />
            </Array>
          </mxGeometry>
        </mxCell>
        <mxCell id="nQFnv8SFr1N0iWkzfD2N-66" value="StockQuantity" style="ellipse;whiteSpace=wrap;html=1;align=center;" parent="1" vertex="1">
          <mxGeometry x="390" y="420" width="100" height="40" as="geometry" />
        </mxCell>
        <mxCell id="nQFnv8SFr1N0iWkzfD2N-69" value="Drug" style="whiteSpace=wrap;html=1;align=center;" parent="1" vertex="1">
          <mxGeometry x="50" y="660" width="100" height="40" as="geometry" />
        </mxCell>
        <mxCell id="nQFnv8SFr1N0iWkzfD2N-70" value="MedicalSupply" style="whiteSpace=wrap;html=1;align=center;" parent="1" vertex="1">
          <mxGeometry x="180" y="660" width="100" height="40" as="geometry" />
        </mxCell>
        <mxCell id="nQFnv8SFr1N0iWkzfD2N-71" value="Equipments" style="whiteSpace=wrap;html=1;align=center;" parent="1" vertex="1">
          <mxGeometry x="300" y="660" width="100" height="40" as="geometry" />
        </mxCell>
        <mxCell id="nQFnv8SFr1N0iWkzfD2N-72" style="edgeStyle=orthogonalEdgeStyle;rounded=0;orthogonalLoop=1;jettySize=auto;html=1;exitX=0;exitY=0.5;exitDx=0;exitDy=0;exitPerimeter=0;entryX=0;entryY=0.5;entryDx=0;entryDy=0;entryPerimeter=0;" parent="1" edge="1">
          <mxGeometry relative="1" as="geometry">
            <mxPoint x="430" y="690" as="sourcePoint" />
            <mxPoint x="430" y="690" as="targetPoint" />
          </mxGeometry>
        </mxCell>
        <mxCell id="nQFnv8SFr1N0iWkzfD2N-73" value="Room" style="whiteSpace=wrap;html=1;align=center;" parent="1" vertex="1">
          <mxGeometry x="850" y="490" width="130" height="40" as="geometry" />
        </mxCell>
        <mxCell id="nQFnv8SFr1N0iWkzfD2N-74" style="edgeStyle=orthogonalEdgeStyle;rounded=0;orthogonalLoop=1;jettySize=auto;html=1;entryX=1;entryY=0.5;entryDx=0;entryDy=0;endArrow=none;startFill=0;" parent="1" source="nQFnv8SFr1N0iWkzfD2N-75" target="nQFnv8SFr1N0iWkzfD2N-73" edge="1">
          <mxGeometry relative="1" as="geometry" />
        </mxCell>
        <mxCell id="nQFnv8SFr1N0iWkzfD2N-75" value="CurrentPatientID" style="ellipse;whiteSpace=wrap;html=1;align=center;" parent="1" vertex="1">
          <mxGeometry x="1020" y="490" width="100" height="40" as="geometry" />
        </mxCell>
        <mxCell id="nQFnv8SFr1N0iWkzfD2N-76" style="edgeStyle=orthogonalEdgeStyle;rounded=0;orthogonalLoop=1;jettySize=auto;html=1;entryX=0.75;entryY=0;entryDx=0;entryDy=0;endArrow=none;startFill=0;" parent="1" source="nQFnv8SFr1N0iWkzfD2N-77" target="nQFnv8SFr1N0iWkzfD2N-73" edge="1">
          <mxGeometry relative="1" as="geometry" />
        </mxCell>
        <mxCell id="nQFnv8SFr1N0iWkzfD2N-77" value="RoomType" style="ellipse;whiteSpace=wrap;html=1;align=center;" parent="1" vertex="1">
          <mxGeometry x="940" y="420" width="100" height="40" as="geometry" />
        </mxCell>
        <mxCell id="nQFnv8SFr1N0iWkzfD2N-78" value="&lt;u&gt;RoomID&lt;/u&gt;" style="ellipse;whiteSpace=wrap;html=1;align=center;" parent="1" vertex="1">
          <mxGeometry x="720" y="430" width="100" height="40" as="geometry" />
        </mxCell>
        <mxCell id="nQFnv8SFr1N0iWkzfD2N-79" style="edgeStyle=orthogonalEdgeStyle;rounded=0;orthogonalLoop=1;jettySize=auto;html=1;entryX=0.19;entryY=-0.05;entryDx=0;entryDy=0;entryPerimeter=0;endArrow=none;startFill=0;" parent="1" source="nQFnv8SFr1N0iWkzfD2N-78" target="nQFnv8SFr1N0iWkzfD2N-73" edge="1">
          <mxGeometry relative="1" as="geometry" />
        </mxCell>
        <mxCell id="nQFnv8SFr1N0iWkzfD2N-108" style="edgeStyle=orthogonalEdgeStyle;rounded=0;orthogonalLoop=1;jettySize=auto;html=1;endArrow=none;startFill=0;" parent="1" source="nQFnv8SFr1N0iWkzfD2N-80" target="nQFnv8SFr1N0iWkzfD2N-73" edge="1">
          <mxGeometry relative="1" as="geometry" />
        </mxCell>
        <mxCell id="nQFnv8SFr1N0iWkzfD2N-80" value="d" style="ellipse;whiteSpace=wrap;html=1;aspect=fixed;" parent="1" vertex="1">
          <mxGeometry x="880" y="550" width="30" height="30" as="geometry" />
        </mxCell>
        <mxCell id="nQFnv8SFr1N0iWkzfD2N-82" style="edgeStyle=orthogonalEdgeStyle;rounded=0;orthogonalLoop=1;jettySize=auto;html=1;entryX=0;entryY=0.5;entryDx=0;entryDy=0;endArrow=none;startFill=0;" parent="1" source="nQFnv8SFr1N0iWkzfD2N-83" target="nQFnv8SFr1N0iWkzfD2N-73" edge="1">
          <mxGeometry relative="1" as="geometry">
            <Array as="points">
              <mxPoint x="850" y="500" />
            </Array>
          </mxGeometry>
        </mxCell>
        <mxCell id="nQFnv8SFr1N0iWkzfD2N-83" value="RoomNumber" style="ellipse;whiteSpace=wrap;html=1;align=center;" parent="1" vertex="1">
          <mxGeometry x="690" y="480" width="100" height="40" as="geometry" />
        </mxCell>
        <mxCell id="nQFnv8SFr1N0iWkzfD2N-84" style="edgeStyle=orthogonalEdgeStyle;rounded=0;orthogonalLoop=1;jettySize=auto;html=1;entryX=0.75;entryY=1;entryDx=0;entryDy=0;endArrow=none;startFill=0;" parent="1" source="nQFnv8SFr1N0iWkzfD2N-85" target="nQFnv8SFr1N0iWkzfD2N-73" edge="1">
          <mxGeometry relative="1" as="geometry">
            <Array as="points">
              <mxPoint x="960" y="540" />
              <mxPoint x="960" y="550" />
              <mxPoint x="948" y="550" />
            </Array>
          </mxGeometry>
        </mxCell>
        <mxCell id="nQFnv8SFr1N0iWkzfD2N-85" value="DepartmentID" style="ellipse;whiteSpace=wrap;html=1;align=center;" parent="1" vertex="1">
          <mxGeometry x="980" y="540" width="100" height="40" as="geometry" />
        </mxCell>
        <mxCell id="nQFnv8SFr1N0iWkzfD2N-86" style="edgeStyle=orthogonalEdgeStyle;rounded=0;orthogonalLoop=1;jettySize=auto;html=1;entryX=1;entryY=0.25;entryDx=0;entryDy=0;endArrow=none;startFill=0;" parent="1" source="nQFnv8SFr1N0iWkzfD2N-87" target="nQFnv8SFr1N0iWkzfD2N-73" edge="1">
          <mxGeometry relative="1" as="geometry">
            <Array as="points">
              <mxPoint x="1040" y="450" />
              <mxPoint x="1040" y="490" />
              <mxPoint x="980" y="490" />
            </Array>
          </mxGeometry>
        </mxCell>
        <mxCell id="nQFnv8SFr1N0iWkzfD2N-87" value="Status" style="ellipse;whiteSpace=wrap;html=1;align=center;" parent="1" vertex="1">
          <mxGeometry x="1060" y="430" width="100" height="40" as="geometry" />
        </mxCell>
        <mxCell id="nQFnv8SFr1N0iWkzfD2N-89" value="" style="endArrow=none;html=1;rounded=0;exitX=0.5;exitY=0;exitDx=0;exitDy=0;entryX=0;entryY=0.5;entryDx=0;entryDy=0;" parent="1" source="nQFnv8SFr1N0iWkzfD2N-14" target="nQFnv8SFr1N0iWkzfD2N-10" edge="1">
          <mxGeometry relative="1" as="geometry">
            <mxPoint x="250" y="230" as="sourcePoint" />
            <mxPoint x="410" y="230" as="targetPoint" />
          </mxGeometry>
        </mxCell>
        <mxCell id="nQFnv8SFr1N0iWkzfD2N-91" value="" style="endArrow=none;html=1;rounded=0;exitX=0.5;exitY=0;exitDx=0;exitDy=0;entryX=1;entryY=1;entryDx=0;entryDy=0;" parent="1" edge="1">
          <mxGeometry relative="1" as="geometry">
            <mxPoint x="342.2" y="279.69" as="sourcePoint" />
            <mxPoint x="227.8066017177983" y="215.2966017177983" as="targetPoint" />
          </mxGeometry>
        </mxCell>
        <mxCell id="nQFnv8SFr1N0iWkzfD2N-92" value="" style="endArrow=none;html=1;rounded=0;exitX=0.405;exitY=0;exitDx=0;exitDy=0;exitPerimeter=0;entryX=0;entryY=0.5;entryDx=0;entryDy=0;" parent="1" source="nQFnv8SFr1N0iWkzfD2N-49" target="nQFnv8SFr1N0iWkzfD2N-43" edge="1">
          <mxGeometry relative="1" as="geometry">
            <mxPoint x="850" y="230" as="sourcePoint" />
            <mxPoint x="1010" y="230" as="targetPoint" />
          </mxGeometry>
        </mxCell>
        <mxCell id="nQFnv8SFr1N0iWkzfD2N-93" value="" style="endArrow=none;html=1;rounded=0;exitX=0.425;exitY=0.075;exitDx=0;exitDy=0;exitPerimeter=0;entryX=0.5;entryY=1;entryDx=0;entryDy=0;" parent="1" source="nQFnv8SFr1N0iWkzfD2N-50" target="nQFnv8SFr1N0iWkzfD2N-43" edge="1">
          <mxGeometry relative="1" as="geometry">
            <mxPoint x="850" y="230" as="sourcePoint" />
            <mxPoint x="1010" y="230" as="targetPoint" />
          </mxGeometry>
        </mxCell>
        <mxCell id="nQFnv8SFr1N0iWkzfD2N-94" value="" style="endArrow=none;html=1;rounded=0;exitX=0.435;exitY=0.05;exitDx=0;exitDy=0;exitPerimeter=0;entryX=1;entryY=1;entryDx=0;entryDy=0;" parent="1" edge="1">
          <mxGeometry relative="1" as="geometry">
            <mxPoint x="850.0000000000002" y="286.3899999999999" as="sourcePoint" />
            <mxPoint x="757.6066017177984" y="199.99660171779817" as="targetPoint" />
          </mxGeometry>
        </mxCell>
        <mxCell id="nQFnv8SFr1N0iWkzfD2N-95" value="" style="endArrow=none;html=1;rounded=0;exitX=1;exitY=0.5;exitDx=0;exitDy=0;entryX=0;entryY=0.5;entryDx=0;entryDy=0;" parent="1" source="nQFnv8SFr1N0iWkzfD2N-43" target="nQFnv8SFr1N0iWkzfD2N-53" edge="1">
          <mxGeometry relative="1" as="geometry">
            <mxPoint x="850" y="230" as="sourcePoint" />
            <mxPoint x="1010" y="230" as="targetPoint" />
          </mxGeometry>
        </mxCell>
        <mxCell id="nQFnv8SFr1N0iWkzfD2N-96" value="" style="endArrow=none;html=1;rounded=0;exitX=0.5;exitY=0;exitDx=0;exitDy=0;entryX=0;entryY=1;entryDx=0;entryDy=0;" parent="1" source="nQFnv8SFr1N0iWkzfD2N-69" target="nQFnv8SFr1N0iWkzfD2N-61" edge="1">
          <mxGeometry relative="1" as="geometry">
            <mxPoint x="350" y="560" as="sourcePoint" />
            <mxPoint x="510" y="560" as="targetPoint" />
          </mxGeometry>
        </mxCell>
        <mxCell id="nQFnv8SFr1N0iWkzfD2N-97" value="" style="endArrow=none;html=1;rounded=0;exitX=0.4;exitY=0.05;exitDx=0;exitDy=0;exitPerimeter=0;entryX=0.5;entryY=1;entryDx=0;entryDy=0;" parent="1" source="nQFnv8SFr1N0iWkzfD2N-70" target="nQFnv8SFr1N0iWkzfD2N-61" edge="1">
          <mxGeometry relative="1" as="geometry">
            <mxPoint x="350" y="560" as="sourcePoint" />
            <mxPoint x="510" y="560" as="targetPoint" />
          </mxGeometry>
        </mxCell>
        <mxCell id="nQFnv8SFr1N0iWkzfD2N-98" value="" style="endArrow=none;html=1;rounded=0;exitX=0.5;exitY=0;exitDx=0;exitDy=0;entryX=1;entryY=1;entryDx=0;entryDy=0;" parent="1" source="nQFnv8SFr1N0iWkzfD2N-71" target="nQFnv8SFr1N0iWkzfD2N-61" edge="1">
          <mxGeometry relative="1" as="geometry">
            <mxPoint x="350" y="560" as="sourcePoint" />
            <mxPoint x="510" y="560" as="targetPoint" />
          </mxGeometry>
        </mxCell>
        <mxCell id="nQFnv8SFr1N0iWkzfD2N-99" value="ICU" style="whiteSpace=wrap;html=1;align=center;" parent="1" vertex="1">
          <mxGeometry x="729.5" y="680" width="100" height="40" as="geometry" />
        </mxCell>
        <mxCell id="nQFnv8SFr1N0iWkzfD2N-100" value="Private" style="whiteSpace=wrap;html=1;align=center;" parent="1" vertex="1">
          <mxGeometry x="859.5" y="680" width="100" height="40" as="geometry" />
        </mxCell>
        <mxCell id="nQFnv8SFr1N0iWkzfD2N-101" value="Operating" style="whiteSpace=wrap;html=1;align=center;" parent="1" vertex="1">
          <mxGeometry x="979.5" y="680" width="100" height="40" as="geometry" />
        </mxCell>
        <mxCell id="nQFnv8SFr1N0iWkzfD2N-102" style="edgeStyle=orthogonalEdgeStyle;rounded=0;orthogonalLoop=1;jettySize=auto;html=1;exitX=0;exitY=0.5;exitDx=0;exitDy=0;exitPerimeter=0;entryX=0;entryY=0.5;entryDx=0;entryDy=0;entryPerimeter=0;" parent="1" edge="1">
          <mxGeometry relative="1" as="geometry">
            <mxPoint x="1109.5" y="710" as="sourcePoint" />
            <mxPoint x="1109.5" y="710" as="targetPoint" />
          </mxGeometry>
        </mxCell>
        <mxCell id="nQFnv8SFr1N0iWkzfD2N-103" value="" style="endArrow=none;html=1;rounded=0;exitX=0.445;exitY=0;exitDx=0;exitDy=0;exitPerimeter=0;entryX=0;entryY=0.5;entryDx=0;entryDy=0;" parent="1" source="nQFnv8SFr1N0iWkzfD2N-99" target="nQFnv8SFr1N0iWkzfD2N-80" edge="1">
          <mxGeometry relative="1" as="geometry">
            <mxPoint x="670" y="640" as="sourcePoint" />
            <mxPoint x="830" y="640" as="targetPoint" />
          </mxGeometry>
        </mxCell>
        <mxCell id="nQFnv8SFr1N0iWkzfD2N-104" value="" style="endArrow=none;html=1;rounded=0;exitX=0.5;exitY=0;exitDx=0;exitDy=0;entryX=0.5;entryY=1;entryDx=0;entryDy=0;" parent="1" source="nQFnv8SFr1N0iWkzfD2N-100" target="nQFnv8SFr1N0iWkzfD2N-80" edge="1">
          <mxGeometry relative="1" as="geometry">
            <mxPoint x="670" y="640" as="sourcePoint" />
            <mxPoint x="830" y="640" as="targetPoint" />
          </mxGeometry>
        </mxCell>
        <mxCell id="nQFnv8SFr1N0iWkzfD2N-105" value="" style="endArrow=none;html=1;rounded=0;entryX=0.5;entryY=0;entryDx=0;entryDy=0;exitX=1;exitY=1;exitDx=0;exitDy=0;" parent="1" edge="1">
          <mxGeometry relative="1" as="geometry">
            <mxPoint x="900.8566017177982" y="575.606601717798" as="sourcePoint" />
            <mxPoint x="1024.75" y="680" as="targetPoint" />
          </mxGeometry>
        </mxCell>
        <mxCell id="nQFnv8SFr1N0iWkzfD2N-109" value="Payments" style="whiteSpace=wrap;html=1;align=center;" parent="1" vertex="1">
          <mxGeometry x="220" y="870" width="130" height="40" as="geometry" />
        </mxCell>
        <mxCell id="nQFnv8SFr1N0iWkzfD2N-110" style="edgeStyle=orthogonalEdgeStyle;rounded=0;orthogonalLoop=1;jettySize=auto;html=1;entryX=1;entryY=0.5;entryDx=0;entryDy=0;endArrow=none;startFill=0;" parent="1" source="nQFnv8SFr1N0iWkzfD2N-111" target="nQFnv8SFr1N0iWkzfD2N-109" edge="1">
          <mxGeometry relative="1" as="geometry" />
        </mxCell>
        <mxCell id="nQFnv8SFr1N0iWkzfD2N-111" value="PaymentMethod" style="ellipse;whiteSpace=wrap;html=1;align=center;" parent="1" vertex="1">
          <mxGeometry x="390" y="870" width="100" height="40" as="geometry" />
        </mxCell>
        <mxCell id="nQFnv8SFr1N0iWkzfD2N-112" style="edgeStyle=orthogonalEdgeStyle;rounded=0;orthogonalLoop=1;jettySize=auto;html=1;entryX=0.75;entryY=0;entryDx=0;entryDy=0;endArrow=none;startFill=0;" parent="1" source="nQFnv8SFr1N0iWkzfD2N-113" target="nQFnv8SFr1N0iWkzfD2N-109" edge="1">
          <mxGeometry relative="1" as="geometry" />
        </mxCell>
        <mxCell id="nQFnv8SFr1N0iWkzfD2N-113" value="Amount" style="ellipse;whiteSpace=wrap;html=1;align=center;" parent="1" vertex="1">
          <mxGeometry x="310" y="800" width="100" height="40" as="geometry" />
        </mxCell>
        <mxCell id="nQFnv8SFr1N0iWkzfD2N-114" value="&lt;u&gt;PaymentID&lt;/u&gt;" style="ellipse;whiteSpace=wrap;html=1;align=center;" parent="1" vertex="1">
          <mxGeometry x="90" y="810" width="100" height="40" as="geometry" />
        </mxCell>
        <mxCell id="nQFnv8SFr1N0iWkzfD2N-115" style="edgeStyle=orthogonalEdgeStyle;rounded=0;orthogonalLoop=1;jettySize=auto;html=1;entryX=0.19;entryY=-0.05;entryDx=0;entryDy=0;entryPerimeter=0;endArrow=none;startFill=0;" parent="1" source="nQFnv8SFr1N0iWkzfD2N-114" target="nQFnv8SFr1N0iWkzfD2N-109" edge="1">
          <mxGeometry relative="1" as="geometry" />
        </mxCell>
        <mxCell id="nQFnv8SFr1N0iWkzfD2N-116" style="edgeStyle=orthogonalEdgeStyle;rounded=0;orthogonalLoop=1;jettySize=auto;html=1;endArrow=none;startFill=0;" parent="1" source="nQFnv8SFr1N0iWkzfD2N-117" target="nQFnv8SFr1N0iWkzfD2N-109" edge="1">
          <mxGeometry relative="1" as="geometry" />
        </mxCell>
        <mxCell id="nQFnv8SFr1N0iWkzfD2N-117" value="d" style="ellipse;whiteSpace=wrap;html=1;aspect=fixed;" parent="1" vertex="1">
          <mxGeometry x="250" y="930" width="30" height="30" as="geometry" />
        </mxCell>
        <mxCell id="nQFnv8SFr1N0iWkzfD2N-118" style="edgeStyle=orthogonalEdgeStyle;rounded=0;orthogonalLoop=1;jettySize=auto;html=1;entryX=0;entryY=0.5;entryDx=0;entryDy=0;endArrow=none;startFill=0;" parent="1" source="nQFnv8SFr1N0iWkzfD2N-119" target="nQFnv8SFr1N0iWkzfD2N-109" edge="1">
          <mxGeometry relative="1" as="geometry" />
        </mxCell>
        <mxCell id="nQFnv8SFr1N0iWkzfD2N-119" value="PatientID" style="ellipse;whiteSpace=wrap;html=1;align=center;" parent="1" vertex="1">
          <mxGeometry x="60" y="870" width="100" height="40" as="geometry" />
        </mxCell>
        <mxCell id="nQFnv8SFr1N0iWkzfD2N-120" style="edgeStyle=orthogonalEdgeStyle;rounded=0;orthogonalLoop=1;jettySize=auto;html=1;entryX=0.75;entryY=1;entryDx=0;entryDy=0;endArrow=none;startFill=0;" parent="1" source="nQFnv8SFr1N0iWkzfD2N-121" target="nQFnv8SFr1N0iWkzfD2N-109" edge="1">
          <mxGeometry relative="1" as="geometry">
            <Array as="points">
              <mxPoint x="330" y="920" />
              <mxPoint x="330" y="930" />
              <mxPoint x="318" y="930" />
            </Array>
          </mxGeometry>
        </mxCell>
        <mxCell id="nQFnv8SFr1N0iWkzfD2N-121" value="PaymentStatus" style="ellipse;whiteSpace=wrap;html=1;align=center;" parent="1" vertex="1">
          <mxGeometry x="350" y="920" width="100" height="40" as="geometry" />
        </mxCell>
        <mxCell id="nQFnv8SFr1N0iWkzfD2N-122" style="edgeStyle=orthogonalEdgeStyle;rounded=0;orthogonalLoop=1;jettySize=auto;html=1;entryX=1;entryY=0.25;entryDx=0;entryDy=0;endArrow=none;startFill=0;" parent="1" source="nQFnv8SFr1N0iWkzfD2N-123" target="nQFnv8SFr1N0iWkzfD2N-109" edge="1">
          <mxGeometry relative="1" as="geometry">
            <Array as="points">
              <mxPoint x="410" y="830" />
              <mxPoint x="410" y="870" />
              <mxPoint x="350" y="870" />
            </Array>
          </mxGeometry>
        </mxCell>
        <mxCell id="nQFnv8SFr1N0iWkzfD2N-123" value="PaymentDate" style="ellipse;whiteSpace=wrap;html=1;align=center;" parent="1" vertex="1">
          <mxGeometry x="430" y="810" width="100" height="40" as="geometry" />
        </mxCell>
        <mxCell id="nQFnv8SFr1N0iWkzfD2N-124" value="Cash" style="whiteSpace=wrap;html=1;align=center;" parent="1" vertex="1">
          <mxGeometry x="99.5" y="1060" width="100" height="40" as="geometry" />
        </mxCell>
        <mxCell id="nQFnv8SFr1N0iWkzfD2N-125" value="Card" style="whiteSpace=wrap;html=1;align=center;" parent="1" vertex="1">
          <mxGeometry x="229.5" y="1060" width="100" height="40" as="geometry" />
        </mxCell>
        <mxCell id="nQFnv8SFr1N0iWkzfD2N-126" value="Insurance" style="whiteSpace=wrap;html=1;align=center;" parent="1" vertex="1">
          <mxGeometry x="349.5" y="1060" width="100" height="40" as="geometry" />
        </mxCell>
        <mxCell id="nQFnv8SFr1N0iWkzfD2N-127" style="edgeStyle=orthogonalEdgeStyle;rounded=0;orthogonalLoop=1;jettySize=auto;html=1;exitX=0;exitY=0.5;exitDx=0;exitDy=0;exitPerimeter=0;entryX=0;entryY=0.5;entryDx=0;entryDy=0;entryPerimeter=0;" parent="1" edge="1">
          <mxGeometry relative="1" as="geometry">
            <mxPoint x="479.5" y="1090" as="sourcePoint" />
            <mxPoint x="479.5" y="1090" as="targetPoint" />
          </mxGeometry>
        </mxCell>
        <mxCell id="nQFnv8SFr1N0iWkzfD2N-128" value="" style="endArrow=none;html=1;rounded=0;exitX=0.445;exitY=0;exitDx=0;exitDy=0;exitPerimeter=0;entryX=0;entryY=0.5;entryDx=0;entryDy=0;" parent="1" source="nQFnv8SFr1N0iWkzfD2N-124" target="nQFnv8SFr1N0iWkzfD2N-117" edge="1">
          <mxGeometry relative="1" as="geometry">
            <mxPoint x="40" y="1020" as="sourcePoint" />
            <mxPoint x="200" y="1020" as="targetPoint" />
          </mxGeometry>
        </mxCell>
        <mxCell id="nQFnv8SFr1N0iWkzfD2N-129" value="" style="endArrow=none;html=1;rounded=0;exitX=0.5;exitY=0;exitDx=0;exitDy=0;entryX=0.5;entryY=1;entryDx=0;entryDy=0;" parent="1" source="nQFnv8SFr1N0iWkzfD2N-125" target="nQFnv8SFr1N0iWkzfD2N-117" edge="1">
          <mxGeometry relative="1" as="geometry">
            <mxPoint x="40" y="1020" as="sourcePoint" />
            <mxPoint x="200" y="1020" as="targetPoint" />
          </mxGeometry>
        </mxCell>
        <mxCell id="nQFnv8SFr1N0iWkzfD2N-130" value="" style="endArrow=none;html=1;rounded=0;entryX=0.5;entryY=0;entryDx=0;entryDy=0;exitX=1;exitY=1;exitDx=0;exitDy=0;" parent="1" source="nQFnv8SFr1N0iWkzfD2N-117" target="nQFnv8SFr1N0iWkzfD2N-126" edge="1">
          <mxGeometry relative="1" as="geometry">
            <mxPoint x="40" y="1020" as="sourcePoint" />
            <mxPoint x="200" y="1020" as="targetPoint" />
          </mxGeometry>
        </mxCell>
        <mxCell id="nQFnv8SFr1N0iWkzfD2N-135" style="edgeStyle=orthogonalEdgeStyle;rounded=0;orthogonalLoop=1;jettySize=auto;html=1;entryX=0.5;entryY=1;entryDx=0;entryDy=0;endArrow=ERmandOne;endFill=0;" parent="1" source="nQFnv8SFr1N0iWkzfD2N-131" target="nQFnv8SFr1N0iWkzfD2N-14" edge="1">
          <mxGeometry relative="1" as="geometry" />
        </mxCell>
        <mxCell id="nQFnv8SFr1N0iWkzfD2N-136" style="edgeStyle=orthogonalEdgeStyle;rounded=0;orthogonalLoop=1;jettySize=auto;html=1;entryX=0.5;entryY=1;entryDx=0;entryDy=0;endArrow=ERoneToMany;endFill=0;" parent="1" source="nQFnv8SFr1N0iWkzfD2N-131" target="nQFnv8SFr1N0iWkzfD2N-49" edge="1">
          <mxGeometry relative="1" as="geometry" />
        </mxCell>
        <mxCell id="nQFnv8SFr1N0iWkzfD2N-131" value="Gives" style="shape=rhombus;perimeter=rhombusPerimeter;whiteSpace=wrap;html=1;align=center;" parent="1" vertex="1">
          <mxGeometry x="400" y="340" width="120" height="60" as="geometry" />
        </mxCell>
        <mxCell id="nQFnv8SFr1N0iWkzfD2N-140" style="edgeStyle=orthogonalEdgeStyle;rounded=0;orthogonalLoop=1;jettySize=auto;html=1;entryX=0.75;entryY=0;entryDx=0;entryDy=0;endArrow=ERmandOne;endFill=0;" parent="1" source="nQFnv8SFr1N0iWkzfD2N-132" target="nQFnv8SFr1N0iWkzfD2N-16" edge="1">
          <mxGeometry relative="1" as="geometry" />
        </mxCell>
        <mxCell id="nQFnv8SFr1N0iWkzfD2N-141" style="edgeStyle=orthogonalEdgeStyle;rounded=0;orthogonalLoop=1;jettySize=auto;html=1;entryX=0.25;entryY=0;entryDx=0;entryDy=0;endArrow=ERmany;endFill=0;" parent="1" source="nQFnv8SFr1N0iWkzfD2N-132" target="nQFnv8SFr1N0iWkzfD2N-50" edge="1">
          <mxGeometry relative="1" as="geometry" />
        </mxCell>
        <mxCell id="nQFnv8SFr1N0iWkzfD2N-132" value="HAs" style="shape=rhombus;perimeter=rhombusPerimeter;whiteSpace=wrap;html=1;align=center;" parent="1" vertex="1">
          <mxGeometry x="425" y="200" width="120" height="60" as="geometry" />
        </mxCell>
        <mxCell id="nQFnv8SFr1N0iWkzfD2N-142" style="edgeStyle=orthogonalEdgeStyle;rounded=0;orthogonalLoop=1;jettySize=auto;html=1;entryX=0.5;entryY=1;entryDx=0;entryDy=0;endArrow=ERmandOne;endFill=0;" parent="1" source="nQFnv8SFr1N0iWkzfD2N-133" target="nQFnv8SFr1N0iWkzfD2N-109" edge="1">
          <mxGeometry relative="1" as="geometry">
            <Array as="points">
              <mxPoint x="640" y="1010" />
              <mxPoint x="285" y="1010" />
            </Array>
          </mxGeometry>
        </mxCell>
        <mxCell id="nQFnv8SFr1N0iWkzfD2N-143" style="edgeStyle=orthogonalEdgeStyle;rounded=0;orthogonalLoop=1;jettySize=auto;html=1;entryX=0.5;entryY=0;entryDx=0;entryDy=0;endArrow=ERmandOne;endFill=0;" parent="1" edge="1">
          <mxGeometry relative="1" as="geometry">
            <Array as="points">
              <mxPoint x="1200" y="950" />
              <mxPoint x="1200" y="20" />
              <mxPoint x="350" y="20" />
            </Array>
            <mxPoint x="710" y="950" as="sourcePoint" />
            <mxPoint x="350" y="280" as="targetPoint" />
          </mxGeometry>
        </mxCell>
        <mxCell id="nQFnv8SFr1N0iWkzfD2N-133" value="Relationship" style="shape=rhombus;perimeter=rhombusPerimeter;whiteSpace=wrap;html=1;align=center;" parent="1" vertex="1">
          <mxGeometry x="580" y="920" width="120" height="60" as="geometry" />
        </mxCell>
        <mxCell id="p1QxJ3-uf-aeznOXdAtE-7" style="edgeStyle=orthogonalEdgeStyle;rounded=0;orthogonalLoop=1;jettySize=auto;html=1;exitX=1;exitY=0.5;exitDx=0;exitDy=0;endArrow=ERmany;endFill=0;" edge="1" parent="1" source="nQFnv8SFr1N0iWkzfD2N-134">
          <mxGeometry relative="1" as="geometry">
            <mxPoint x="850" y="509.9999999999999" as="targetPoint" />
            <Array as="points">
              <mxPoint x="800" y="610" />
              <mxPoint x="800" y="510" />
            </Array>
          </mxGeometry>
        </mxCell>
        <mxCell id="nQFnv8SFr1N0iWkzfD2N-134" value="Store ANd use" style="shape=rhombus;perimeter=rhombusPerimeter;whiteSpace=wrap;html=1;align=center;" parent="1" vertex="1">
          <mxGeometry x="530" y="580" width="120" height="60" as="geometry" />
        </mxCell>
        <mxCell id="nQFnv8SFr1N0iWkzfD2N-137" value="" style="endArrow=none;html=1;rounded=0;exitX=1;exitY=0;exitDx=0;exitDy=0;entryX=0.5;entryY=1;entryDx=0;entryDy=0;" parent="1" source="nQFnv8SFr1N0iWkzfD2N-117" target="nQFnv8SFr1N0iWkzfD2N-109" edge="1">
          <mxGeometry relative="1" as="geometry">
            <mxPoint x="620" y="790" as="sourcePoint" />
            <mxPoint x="780" y="790" as="targetPoint" />
          </mxGeometry>
        </mxCell>
        <mxCell id="nQFnv8SFr1N0iWkzfD2N-145" value="U" style="text;html=1;align=center;verticalAlign=middle;whiteSpace=wrap;rounded=0;rotation=60;" parent="1" vertex="1">
          <mxGeometry x="101.47999999999999" y="220" width="68.52" height="59.69" as="geometry" />
        </mxCell>
        <mxCell id="nQFnv8SFr1N0iWkzfD2N-146" value="U" style="text;html=1;align=center;verticalAlign=middle;whiteSpace=wrap;rounded=0;rotation=-37;" parent="1" vertex="1">
          <mxGeometry x="760" y="230" width="90" height="30" as="geometry" />
        </mxCell>
        <mxCell id="nQFnv8SFr1N0iWkzfD2N-147" value="U" style="text;html=1;align=center;verticalAlign=middle;whiteSpace=wrap;rounded=0;" parent="1" vertex="1">
          <mxGeometry x="700" y="250" width="64.5" height="30" as="geometry" />
        </mxCell>
        <mxCell id="nQFnv8SFr1N0iWkzfD2N-148" value="U" style="text;html=1;align=center;verticalAlign=middle;whiteSpace=wrap;rounded=0;rotation=60;" parent="1" vertex="1">
          <mxGeometry x="600" y="239.84" width="90" height="30" as="geometry" />
        </mxCell>
        <mxCell id="nQFnv8SFr1N0iWkzfD2N-151" value="U" style="text;html=1;align=center;verticalAlign=middle;whiteSpace=wrap;rounded=0;rotation=-10;" parent="1" vertex="1">
          <mxGeometry x="860" y="600" width="80" height="30" as="geometry" />
        </mxCell>
        <mxCell id="nQFnv8SFr1N0iWkzfD2N-152" value="U" style="text;html=1;align=center;verticalAlign=middle;whiteSpace=wrap;rounded=0;rotation=-75;" parent="1" vertex="1">
          <mxGeometry x="800" y="209.84" width="90" height="30" as="geometry" />
        </mxCell>
        <mxCell id="nQFnv8SFr1N0iWkzfD2N-154" value="U" style="text;html=1;align=center;verticalAlign=middle;whiteSpace=wrap;rounded=0;rotation=-44;" parent="1" vertex="1">
          <mxGeometry x="920" y="610" width="80" height="30" as="geometry" />
        </mxCell>
        <mxCell id="nQFnv8SFr1N0iWkzfD2N-155" value="U" style="text;html=1;align=center;verticalAlign=middle;whiteSpace=wrap;rounded=0;rotation=45;" parent="1" vertex="1">
          <mxGeometry x="795" y="600" width="75" height="30" as="geometry" />
        </mxCell>
        <mxCell id="nQFnv8SFr1N0iWkzfD2N-156" value="U" style="text;html=1;align=center;verticalAlign=middle;whiteSpace=wrap;rounded=0;rotation=-55;" parent="1" vertex="1">
          <mxGeometry x="250" y="960" width="100" height="30" as="geometry" />
        </mxCell>
        <mxCell id="nQFnv8SFr1N0iWkzfD2N-157" value="U" style="text;html=1;align=center;verticalAlign=middle;whiteSpace=wrap;rounded=0;rotation=-15;" parent="1" vertex="1">
          <mxGeometry x="224.26" y="1010" width="100" height="30" as="geometry" />
        </mxCell>
        <mxCell id="nQFnv8SFr1N0iWkzfD2N-158" value="U" style="text;html=1;align=center;verticalAlign=middle;whiteSpace=wrap;rounded=0;rotation=45;" parent="1" vertex="1">
          <mxGeometry x="139.5" y="1000" width="90" height="30" as="geometry" />
        </mxCell>
        <mxCell id="nQFnv8SFr1N0iWkzfD2N-165" value="U" style="text;html=1;align=center;verticalAlign=middle;whiteSpace=wrap;rounded=0;rotation=-4;" parent="1" vertex="1">
          <mxGeometry x="180" y="230.31" width="68.52" height="59.69" as="geometry" />
        </mxCell>
        <mxCell id="nQFnv8SFr1N0iWkzfD2N-166" value="U" style="text;html=1;align=center;verticalAlign=middle;whiteSpace=wrap;rounded=0;rotation=-60;" parent="1" vertex="1">
          <mxGeometry x="240" y="210.15" width="68.52" height="59.69" as="geometry" />
        </mxCell>
        <mxCell id="nQFnv8SFr1N0iWkzfD2N-184" value="U" style="text;html=1;align=center;verticalAlign=middle;whiteSpace=wrap;rounded=0;rotation=-50;" parent="1" vertex="1">
          <mxGeometry x="248.52" y="600" width="90" height="30" as="geometry" />
        </mxCell>
        <mxCell id="nQFnv8SFr1N0iWkzfD2N-185" value="U" style="text;html=1;align=center;verticalAlign=middle;whiteSpace=wrap;rounded=0;rotation=0;" parent="1" vertex="1">
          <mxGeometry x="170" y="570" width="110" height="30" as="geometry" />
        </mxCell>
        <mxCell id="nQFnv8SFr1N0iWkzfD2N-186" value="U" style="text;html=1;align=center;verticalAlign=middle;whiteSpace=wrap;rounded=0;rotation=45;" parent="1" vertex="1">
          <mxGeometry x="109.5" y="600" width="90" height="30" as="geometry" />
        </mxCell>
        <mxCell id="p1QxJ3-uf-aeznOXdAtE-1" style="edgeStyle=orthogonalEdgeStyle;rounded=0;orthogonalLoop=1;jettySize=auto;html=1;exitX=0.5;exitY=1;exitDx=0;exitDy=0;endArrow=none;startFill=0;" edge="1" parent="1" source="nQFnv8SFr1N0iWkzfD2N-2">
          <mxGeometry relative="1" as="geometry">
            <mxPoint x="213" y="130" as="targetPoint" />
          </mxGeometry>
        </mxCell>
        <mxCell id="p1QxJ3-uf-aeznOXdAtE-2" style="edgeStyle=orthogonalEdgeStyle;rounded=0;orthogonalLoop=1;jettySize=auto;html=1;exitX=0.5;exitY=0;exitDx=0;exitDy=0;entryX=0.338;entryY=1.007;entryDx=0;entryDy=0;entryPerimeter=0;endArrow=none;startFill=0;" edge="1" parent="1" source="nQFnv8SFr1N0iWkzfD2N-61" target="nQFnv8SFr1N0iWkzfD2N-54">
          <mxGeometry relative="1" as="geometry" />
        </mxCell>
        <mxCell id="p1QxJ3-uf-aeznOXdAtE-3" style="edgeStyle=orthogonalEdgeStyle;rounded=0;orthogonalLoop=1;jettySize=auto;html=1;exitX=0;exitY=0.5;exitDx=0;exitDy=0;entryX=0.647;entryY=1.05;entryDx=0;entryDy=0;entryPerimeter=0;endArrow=none;startFill=0;" edge="1" parent="1" source="nQFnv8SFr1N0iWkzfD2N-134" target="nQFnv8SFr1N0iWkzfD2N-54">
          <mxGeometry relative="1" as="geometry">
            <Array as="points">
              <mxPoint x="530" y="580" />
              <mxPoint x="264" y="580" />
            </Array>
          </mxGeometry>
        </mxCell>
      </root>
    </mxGraphModel>
  </diagram>
</mxfile>
